<mxfile host="app.diagrams.net" modified="2023-08-15T11:40:54.295Z" agent="Mozilla/5.0 (Windows NT 10.0; Win64; x64) AppleWebKit/537.36 (KHTML, like Gecko) Chrome/115.0.0.0 Safari/537.36" version="21.6.8" etag="LNGtkBoSXwAIkx3HuOJ_" type="github">
  <diagram name="Page-1" id="t2ytYbpSZLosmCKMw94x">
    <mxGraphModel>
      <root>
        <mxCell id="0" />
        <mxCell id="1" parent="0" />
      </root>
    </mxGraphModel>
  </diagram>
</mxfile>
